# xmcd CD database file
#
# Track frame offsets:
#	150
#	9382
#	27730
#	42227
#	56013
#	69764
#	85530
#	93652
#	109542
#	125762
#	140702
#	148114
#	163014
#	176907
#	192125
#	203784
#	216094
#	228563
#
# Disc length: 3237 seconds
#
# Revision: 0
# Processed by: cddbd v1.5.2PL0 Copyright (c) Steve Scherf et al.
# Submitted via: CDex 1.70beta2
#
DISCID=060ca312
DTITLE=Gunhild Carling and the Carling Big Band - Swing Out!
DYEAR=1900
DGENRE=Jazz
TTITLE0=Bolt from the Blue
TTITLE1=Thankful
TTITLE2=Choo Choo Choo-EE
TTITLE3=Shine
TTITLE4=Ma Chere Dame
TTITLE5=Bugsy
TTITLE6=Hot Shot Lindy
TTITLE7=Seventh Option
TTITLE8=I'll Miss You My Love
TTITLE9=Get Ready
TTITLE10=Giant Steps
TTITLE11=Marrakesh
TTITLE12=Ten Cents a Dance
TTITLE13=Herräng Swing
TTITLE14=Atmosphere
TTITLE15=Last Call
TTITLE16=That Old Oak Tree
TTITLE17=En Manskenspromenad
EXTD=
EXTT0=
EXTT1=
EXTT2=
EXTT3=
EXTT4=
EXTT5=
EXTT6=
EXTT7=
EXTT8=
EXTT9=
EXTT10=
EXTT11=
EXTT12=
EXTT13=
EXTT14=
EXTT15=
EXTT16=
EXTT17=
PLAYORDER=
